<?xml version="1.0" encoding="UTF-8" standalone="no"?>
<!-- Created with Inkscape (http://www.inkscape.org/) -->

<svg
   width="100"
   height="100"
   viewBox="0 0 26.458333 26.458334"
   version="1.1"
   id="svg5"
   inkscape:version="1.1.2 (0a00cf5339, 2022-02-04, custom)"
   sodipodi:docname="logo.svg"
   xmlns:inkscape="http://www.inkscape.org/namespaces/inkscape"
   xmlns:sodipodi="http://sodipodi.sourceforge.net/DTD/sodipodi-0.dtd"
   xmlns="http://www.w3.org/2000/svg"
   xmlns:svg="http://www.w3.org/2000/svg">
  <sodipodi:namedview
     id="namedview7"
     pagecolor="#ffffff"
     bordercolor="#666666"
     borderopacity="1.0"
     inkscape:pageshadow="2"
     inkscape:pageopacity="0.0"
     inkscape:pagecheckerboard="0"
     inkscape:document-units="mm"
     showgrid="false"
     units="px"
     inkscape:snap-global="false"
     inkscape:zoom="4.4756454"
     inkscape:cx="1.3405888"
     inkscape:cy="57.310171"
     inkscape:window-width="1920"
     inkscape:window-height="1019"
     inkscape:window-x="0"
     inkscape:window-y="0"
     inkscape:window-maximized="1"
     inkscape:current-layer="layer1" />
  <defs
     id="defs2" />
  <g
     inkscape:label="Ebene 1"
     inkscape:groupmode="layer"
     id="layer1">
    <rect
       style="fill:#333333;stroke-width:0.308177"
       id="rect125789"
       width="25.965242"
       height="17.777176"
       x="0.42140618"
       y="6.5286565" />
    <text
       xml:space="preserve"
       style="font-style:normal;font-weight:normal;font-size:0.954954px;line-height:1.25;font-family:sans-serif;fill:#7b3958;fill-opacity:1;stroke:none;stroke-width:0.0238738"
       x="8.6640301"
       y="22.165691"
       id="text101683"
       transform="scale(1.1681662,0.85604257)"><tspan
         sodipodi:role="line"
         id="tspan101681"
         style="fill:#7b3958;fill-opacity:1;stroke-width:0.0238738"
         x="8.6640301"
         y="22.165691">FRAMEWORK</tspan></text>
    <path
       d="m -4.4015356,13.14437 c -0.1278156,0.02272 -0.3081777,0.09089 -0.4288911,0.16474 -0.2187064,0.130655 -0.3919671,0.320958 -0.5027402,0.551025 -0.3166977,0.653278 -0.036927,1.43011 0.6234536,1.739706 0.3451018,0.161899 0.749849,0.16048 1.09495,-0.0057 0.1562188,-0.07527 0.2414293,-0.134916 0.3678239,-0.259891 0.1633202,-0.161899 0.2570508,-0.322378 0.3323192,-0.570908 0.034079,-0.109353 0.036927,-0.144857 0.036927,-0.335159 0,-0.174681 -0.0057,-0.234328 -0.029822,-0.326639 -0.123554,-0.454454 -0.4658144,-0.802395 -0.9145887,-0.93163 -0.1192932,-0.03409 -0.4487727,-0.04971 -0.5794281,-0.02557 z m 0.2726723,0.09373 c 0.00285,0.03125 0.012787,0.04118 0.042609,0.04402 0.035511,0.0042 0.038343,0.01136 0.046857,0.08521 0.012778,0.110773 0.034087,0.218706 0.048281,0.241428 0.00847,0.01278 0.015619,0.0014 0.025565,-0.03834 0.012778,-0.04545 0.011362,-0.05823 -0.0057,-0.06391 -0.014203,-0.0057 -0.017043,-0.01846 -0.00995,-0.03977 0.012787,-0.04402 0.00995,-0.04402 0.076687,-0.02556 0.052546,0.0142 0.058227,0.01988 0.053971,0.05396 -0.00285,0.02557 -0.011362,0.03693 -0.026981,0.03409 -0.017035,-0.0028 -0.026981,0.0142 -0.038343,0.05396 -0.00708,0.03125 -0.00847,0.0568 -0.00285,0.0568 0.015619,0 0.1022473,-0.100832 0.1590586,-0.187463 0.045441,-0.06675 0.055387,-0.07101 0.1121933,-0.04829 0.014203,0.0071 0.026981,-0.0014 0.038344,-0.02698 0.01846,-0.04119 0.029822,-0.04261 0.066749,-0.01562 0.025565,0.01846 0.025565,0.0213 0.00285,0.05539 -0.022724,0.03409 -0.021308,0.03693 0.011362,0.05823 l 0.034087,0.02272 -0.049714,0.115033 c -0.028406,0.06248 -0.053963,0.137756 -0.058228,0.16616 l -0.00847,0.05255 0.044025,-0.04118 c 0.034079,-0.03266 0.041184,-0.04545 0.029822,-0.06107 -0.012787,-0.01278 -0.011362,-0.02414 0.00138,-0.03977 0.025565,-0.03125 0.046857,-0.02698 0.092314,0.0213 0.039768,0.04118 0.039768,0.04261 0.014203,0.07101 -0.017043,0.01988 -0.031238,0.02414 -0.042609,0.0142 -0.011362,-0.0099 -0.028406,0 -0.058228,0.02982 l -0.041184,0.04402 0.049714,-0.0099 c 0.026981,-0.0057 0.1008287,-0.03266 0.1633195,-0.05964 l 0.1136136,-0.04687 0.025565,0.02982 c 0.022724,0.02841 0.028406,0.02982 0.059644,0.01278 0.031238,-0.01704 0.038344,-0.01562 0.056803,0.0085 0.01846,0.02414 0.017035,0.02982 -0.015619,0.0568 -0.031238,0.02557 -0.034087,0.0355 -0.021308,0.05964 0.00847,0.01562 0.015619,0.03125 0.015619,0.0355 0,0.0028 -0.034087,0.02841 -0.073847,0.0568 -0.09799,0.06675 -0.1959835,0.16616 -0.1647389,0.16616 0.048282,0 0.096571,-0.02698 0.088046,-0.04971 -0.00423,-0.01136 -0.00285,-0.0213 0.0057,-0.0213 0.00847,0 0.024149,-0.0042 0.036927,-0.0085 0.022724,-0.0085 0.044025,0.02698 0.053963,0.09373 0.00285,0.02557 -0.00423,0.0355 -0.034079,0.04402 -0.031238,0.0085 -0.039768,0.0057 -0.039768,-0.01136 0,-0.01562 -0.00995,-0.01846 -0.045441,-0.01136 -0.025565,0.0057 -0.052546,0.01562 -0.059644,0.0213 -0.017035,0.01704 0.085208,0.04261 0.215865,0.05396 0.1065131,0.0099 0.1093536,0.01136 0.1136137,0.04829 0.00423,0.03409 0.011362,0.03977 0.046865,0.03977 0.036927,0 0.041184,0.0042 0.041184,0.04261 0,0.03834 -0.00423,0.04261 -0.042609,0.04261 -0.036927,0 -0.042609,0.0042 -0.042609,0.04118 0,0.03977 -0.00138,0.03977 -0.099409,0.04971 -0.1249751,0.01136 -0.2414285,0.0355 -0.2414285,0.05112 0,0.01988 0.1022473,0.03266 0.1136128,0.01278 0.00708,-0.0099 0.025565,-0.01278 0.046857,-0.0071 0.034079,0.0085 0.035511,0.01136 0.021308,0.06107 -0.00708,0.02982 -0.01846,0.05964 -0.025565,0.06533 -0.017035,0.01988 -0.073847,-0.0042 -0.065333,-0.02557 0.00423,-0.01136 -0.00423,-0.02273 -0.021308,-0.02698 -0.014203,-0.0057 -0.039768,-0.01278 -0.055387,-0.01704 -0.055387,-0.01562 -0.026981,0.02414 0.078111,0.106513 0.058228,0.04687 0.1164534,0.09089 0.1292351,0.09799 0.01846,0.0099 0.01846,0.01846 0.00285,0.05255 -0.012787,0.02841 -0.012787,0.04261 -0.00285,0.04545 0.00847,0.0028 0.026981,0.01278 0.039768,0.02272 0.021308,0.01562 0.021308,0.0213 0.00285,0.04545 -0.017035,0.02414 -0.024149,0.02557 -0.058228,0.0099 -0.032662,-0.01562 -0.041184,-0.0142 -0.062484,0.01278 l -0.025568,0.03128 -0.1192939,-0.04971 c -0.1860424,-0.07953 -0.238588,-0.08379 -0.1647398,-0.0142 0.019892,0.01846 0.0426,0.02698 0.06106,0.02272 0.017035,-0.0042 0.036927,0.0014 0.04829,0.01562 0.015619,0.01988 0.012778,0.02982 -0.028406,0.07101 -0.045441,0.04687 -0.049714,0.04829 -0.073847,0.02557 -0.014203,-0.01278 -0.022725,-0.03409 -0.01846,-0.04687 0.00423,-0.0142 -0.00708,-0.03693 -0.029822,-0.05823 l -0.038344,-0.03409 0.00995,0.04829 c 0.00423,0.02698 0.031238,0.100832 0.058228,0.1619 l 0.04829,0.113613 -0.031238,0.02557 c -0.026981,0.0213 -0.028406,0.02982 -0.012787,0.05396 0.022724,0.03834 0.022724,0.03977 -0.014203,0.05964 -0.025565,0.0142 -0.034079,0.01136 -0.055387,-0.01704 -0.021308,-0.0284 -0.029822,-0.03125 -0.059644,-0.01704 -0.032662,0.01562 -0.038344,0.0099 -0.09941,-0.07101 -0.065333,-0.08947 -0.1519572,-0.184622 -0.160478,-0.176101 -0.014203,0.01278 0.029822,0.107933 0.052546,0.113613 0.026981,0.0071 0.038344,0.05823 0.015619,0.07243 -0.0057,0.0028 -0.032662,0.0099 -0.06106,0.01562 -0.045441,0.0085 -0.052546,0.0057 -0.059644,-0.02273 -0.0057,-0.01846 -0.00138,-0.03834 0.00995,-0.04687 0.015619,-0.01278 0.017043,-0.02698 0.00285,-0.07243 l -0.017035,-0.05681 -0.017035,0.04971 c -0.00847,0.02698 -0.022724,0.103673 -0.031238,0.170421 -0.00995,0.06533 -0.019884,0.124974 -0.022724,0.130655 -0.00423,0.0057 -0.022724,0.01136 -0.042609,0.01136 -0.028406,0 -0.034079,0.0071 -0.034079,0.04261 0,0.0355 -0.0057,0.04261 -0.035511,0.04261 -0.029822,0 -0.035511,-0.0071 -0.035511,-0.04261 0,-0.0355 -0.0057,-0.04261 -0.034079,-0.04261 -0.019876,0 -0.038344,-0.0057 -0.0426,-0.01136 -0.00423,-0.0071 -0.014203,-0.06675 -0.022725,-0.133496 -0.00847,-0.06675 -0.022724,-0.143437 -0.031238,-0.168999 l -0.017035,-0.04829 -0.017043,0.05681 c -0.014203,0.04545 -0.012779,0.05964 0.00285,0.07243 0.011362,0.0085 0.015619,0.0284 0.00995,0.04687 -0.00708,0.02841 -0.014203,0.03125 -0.059644,0.02272 -0.065333,-0.01278 -0.072422,-0.01704 -0.072422,-0.05255 0,-0.01562 0.011362,-0.03125 0.028406,-0.0355 0.014203,-0.0042 0.029822,-0.01846 0.034079,-0.03125 0.00285,-0.01278 0.011362,-0.03834 0.015619,-0.05823 0.00995,-0.03409 0.00708,-0.03266 -0.0426,0.0142 -0.028406,0.02698 -0.080952,0.08947 -0.116455,0.137756 -0.06106,0.08237 -0.066749,0.08663 -0.1008287,0.07101 -0.031238,-0.0142 -0.038343,-0.01278 -0.056803,0.01562 -0.039768,0.06107 -0.1008287,0.02557 -0.066749,-0.03977 0.01846,-0.0355 0.017035,-0.03977 -0.015619,-0.0568 -0.019876,-0.01136 -0.031238,-0.02698 -0.028406,-0.03409 0.045441,-0.09799 0.1079325,-0.262731 0.1079325,-0.284033 0,-0.02557 -0.00285,-0.02557 -0.035511,0.0057 -0.021308,0.01988 -0.032662,0.04261 -0.028406,0.05681 0.00423,0.01278 -0.00423,0.03409 -0.01846,0.04687 -0.024149,0.02272 -0.028406,0.0213 -0.073847,-0.02557 -0.041184,-0.04118 -0.044025,-0.05112 -0.028406,-0.07101 0.011362,-0.0142 0.031238,-0.01988 0.048282,-0.01562 0.01846,0.0042 0.041184,-0.0042 0.06106,-0.02272 0.073847,-0.06959 0.021308,-0.06533 -0.1647389,0.0142 l -0.1192948,0.04971 -0.025565,-0.03125 c -0.021308,-0.02557 -0.029822,-0.0284 -0.061076,-0.01278 -0.032662,0.0142 -0.039768,0.01278 -0.058227,-0.01136 -0.017035,-0.02414 -0.017035,-0.02841 0.00285,-0.04403 0.012787,-0.0099 0.029822,-0.01988 0.038343,-0.02272 0.00995,-0.0028 0.00995,-0.01704 -0.00285,-0.04545 -0.015619,-0.03409 -0.015619,-0.04261 0.00285,-0.05255 0.012787,-0.0071 0.071006,-0.05113 0.129236,-0.09799 0.1079325,-0.08521 0.133496,-0.122135 0.075263,-0.105092 -0.01846,0.0057 -0.044025,0.01278 -0.056803,0.01562 -0.012787,0.0042 -0.0213,0.01562 -0.017035,0.02698 0.00847,0.0213 -0.04829,0.04545 -0.065333,0.02557 -0.00708,-0.0057 -0.01846,-0.0355 -0.025565,-0.06533 -0.014203,-0.0497 -0.012779,-0.05255 0.021308,-0.06107 0.021308,-0.0057 0.039768,-0.0028 0.046857,0.0071 0.00708,0.01136 0.026981,0.0142 0.062492,0.0085 0.1050968,-0.01988 0.056803,-0.04118 -0.1619,-0.06959 -0.1164534,-0.01562 -0.1207134,-0.01704 -0.1249735,-0.05539 -0.00423,-0.03266 -0.011362,-0.03834 -0.046865,-0.03834 -0.036927,0 -0.041184,-0.0042 -0.041184,-0.0426 0,-0.03834 0.00423,-0.04261 0.041184,-0.04261 0.035511,0 0.0426,-0.0057 0.046865,-0.03977 0.00423,-0.03693 0.00708,-0.03834 0.1136129,-0.04829 0.1306554,-0.01136 0.2329076,-0.03693 0.2158658,-0.05396 -0.00708,-0.0057 -0.034079,-0.01562 -0.058228,-0.0213 -0.035495,-0.0071 -0.046857,-0.0042 -0.046857,0.01136 0,0.0142 -0.011362,0.01846 -0.036927,0.01278 -0.034079,-0.0057 -0.036927,-0.01136 -0.029822,-0.06391 0.00423,-0.02982 0.012787,-0.06107 0.019876,-0.06817 0.01846,-0.01846 0.078111,0.0028 0.06959,0.02557 -0.0057,0.01136 0.0057,0.02414 0.028406,0.03266 0.052546,0.0213 0.080952,0.01846 0.066749,-0.0057 -0.011362,-0.0213 -0.1533783,-0.137756 -0.2158658,-0.180362 -0.029822,-0.01846 -0.031238,-0.02557 -0.015619,-0.05396 0.015619,-0.02982 0.012779,-0.03693 -0.019876,-0.06391 -0.035511,-0.02698 -0.036927,-0.03266 -0.017035,-0.05823 0.01846,-0.02414 0.024149,-0.02557 0.056803,-0.0085 0.032662,0.01846 0.038344,0.01704 0.061076,-0.01136 l 0.025565,-0.03125 0.115034,0.04829 c 0.062492,0.02698 0.1363365,0.05396 0.1633195,0.05964 l 0.04829,0.0099 -0.041184,-0.04402 c -0.029822,-0.02982 -0.046865,-0.03977 -0.058227,-0.02982 -0.011362,0.0099 -0.025565,0.0057 -0.042609,-0.0142 -0.025565,-0.02841 -0.025565,-0.02982 0.014203,-0.07101 0.045441,-0.04828 0.066749,-0.05255 0.092314,-0.0213 0.012787,0.01562 0.014203,0.02698 0.00138,0.03977 -0.011362,0.01562 -0.00423,0.02841 0.029822,0.06107 l 0.044025,0.04118 -0.00847,-0.05396 c -0.00423,-0.02841 -0.029822,-0.105092 -0.056803,-0.16758 l -0.049714,-0.113613 0.034079,-0.02272 c 0.032663,-0.0213 0.034087,-0.02414 0.012779,-0.0568 -0.021308,-0.03266 -0.021308,-0.03693 0.00285,-0.05539 0.035511,-0.02698 0.045441,-0.02414 0.063909,0.01562 0.017043,0.03693 0.032662,0.04403 0.046857,0.0213 0.019876,-0.03125 0.059644,-0.0099 0.1036773,0.05396 0.058228,0.08663 0.1434372,0.187462 0.1590603,0.187462 0.0057,0 0.00423,-0.02556 -0.00285,-0.05823 -0.00995,-0.03834 -0.021308,-0.05396 -0.034079,-0.04971 -0.012787,0.0042 -0.022725,-0.0057 -0.028406,-0.02841 -0.00995,-0.03977 0.00995,-0.06248 0.053963,-0.06248 0.012779,0 0.032662,-0.0042 0.044025,-0.0085 0.026981,-0.0099 0.044025,0.05255 0.01846,0.07243 -0.014203,0.01136 -0.015619,0.02557 -0.00285,0.07101 0.00995,0.03125 0.019876,0.04971 0.025565,0.04261 0.011362,-0.01846 0.035511,-0.150538 0.046857,-0.251371 0.00847,-0.07385 0.011362,-0.08095 0.046857,-0.08521 0.029822,-0.0028 0.039768,-0.01278 0.0426,-0.04402 0.00423,-0.02982 0.012779,-0.03834 0.038344,-0.03834 0.025565,0 0.034079,0.0085 0.038344,0.03834 z"
       id="path66"
       style="fill:#ffffff;stroke:none;stroke-width:0.00142017" />
    <g
       id="g20745"
       transform="matrix(0.87703555,0,0,0.87862552,1.8605538,2.0290564)">
      <rect
         style="fill:none;fill-opacity:1;stroke:#cccccc;stroke-width:0.224174;stroke-miterlimit:4;stroke-dasharray:none"
         id="rect864"
         width="2.7887588"
         height="2.7887588"
         x="-1.5764852"
         y="-20.1472"
         transform="matrix(-0.70249874,0.71168499,-0.70249874,-0.71168499,0,0)"
         ry="0.40534708" />
      <rect
         style="fill:#7b3958;fill-opacity:1;stroke:none;stroke-width:0.131918;stroke-miterlimit:4;stroke-dasharray:none"
         id="rect8909"
         width="1.6410836"
         height="1.6410836"
         x="-1.0026474"
         y="-19.573362"
         transform="matrix(-0.70249874,0.71168499,-0.70249874,-0.71168499,0,0)"
         ry="0.23853207" />
    </g>
    <text
       xml:space="preserve"
       style="font-style:normal;font-weight:normal;font-size:0.341248px;line-height:1.25;font-family:sans-serif;fill:#e6e6e6;fill-opacity:1;stroke:none;stroke-width:0.0085312"
       x="13.112131"
       y="19.070349"
       id="text154788"
       transform="scale(0.97957566,1.0208502)"><tspan
         sodipodi:role="line"
         id="tspan154786"
         style="fill:#e6e6e6;fill-opacity:1;stroke-width:0.0085312"
         x="13.112131"
         y="19.070349">[mɪksˈɪn]</tspan></text>
    <g
       id="g14264"
       transform="translate(0.52916667)">
      <text
         xml:space="preserve"
         style="font-style:normal;font-weight:normal;font-size:3.80873px;line-height:1.25;font-family:sans-serif;letter-spacing:-0.15875px;fill:#cccccc;fill-opacity:1;stroke:none;stroke-width:0.0952186"
         x="5.415451"
         y="21.257717"
         id="text131943"
         transform="scale(1.1735414,0.85212163)"><tspan
           sodipodi:role="line"
           id="tspan131941"
           style="fill:#cccccc;stroke-width:0.0952186"
           x="5.415451"
           y="21.257717">MX</tspan></text>
      <text
         xml:space="preserve"
         style="font-style:normal;font-weight:normal;font-size:3.80873px;line-height:1.25;font-family:sans-serif;letter-spacing:-0.15875px;fill:#cccccc;fill-opacity:1;stroke:none;stroke-width:0.0952186"
         x="11.092958"
         y="21.257717"
         id="text844"
         transform="scale(1.1735414,0.85212163)"><tspan
           sodipodi:role="line"
           id="tspan842"
           style="fill:#cccccc;stroke-width:0.0952186"
           x="11.092958"
           y="21.257717">XN</tspan></text>
    </g>
  </g>
</svg>
